<?xml version="1.0" encoding="UTF-8"?>
<svg id="Capa_2" data-name="Capa 2" xmlns="http://www.w3.org/2000/svg" viewBox="0 0 43.75 43.75">
  <defs>
    <style>
      .cls-1 {
        fill: #901e20;
      }

      .cls-1, .cls-2 {
        stroke-width: 0px;
      }

      .cls-2 {
        fill: #fff;
      }
    </style>
  </defs>
  <g id="Capa_3" data-name="Capa 3">
    <rect class="cls-2" width="43.75" height="43.75" rx="6" ry="6"/>
    <g>
      <path class="cls-1" d="M25.75,16.68c1.36,1.85,2.34,3.93,3.48,5.91,2.61,4.54,5.17,9.11,7.75,13.66.18.32.33.66.62,1.25-1.93,0-3.7-.22-5.4.05-3.37.52-5.54-.68-6.92-3.78-.68-1.52-1.81-2.83-2.68-4.28-.55-.93-.89-.8-1.41.04-1.43,2.3-2.96,4.55-4.37,6.86-.5.81-1.03,1.16-2.01,1.14-2.79-.07-5.59-.02-8.66-.02.94-1.67,1.76-3.13,2.58-4.58,2.92-5.17,5.85-10.34,8.78-15.5.16-.28.39-.51.58-.77.58,1.32,1.16,2.64,1.82,4.15.73-1.44,1.33-2.63,2.01-3.96.62,1.34,1.17,2.53,1.83,3.96.75-1.55,1.38-2.84,2-4.13ZM8.03,36.15c2.6,0,4.93,0,7.25,0,.53,0,.66-.22.52-.69-.36-1.2-.73-2.39-1.14-3.77-.91,1.46-1.72,2.77-2.63,4.24-.47-1.52-.86-2.78-1.32-4.26-.93,1.55-1.72,2.87-2.68,4.47ZM33.33,31.67c-.52,1.54-.95,2.82-1.44,4.3-.89-1.52-1.63-2.8-2.51-4.3-.45,1.44-.82,2.68-1.23,3.91-.15.46.04.58.45.58,2.35,0,4.71,0,7.27,0-.88-1.55-1.63-2.87-2.55-4.48Z"/>
      <path class="cls-1" d="M18.12,16.47c.88-1.64,1.71-3.32,2.67-4.91.52-.87.58-1.59.03-2.44-.48-.74-.87-1.54-1.29-2.32-.13-.24-.25-.56.13-.69.29-.11.4.17.51.36.53.93,1.05,1.86,1.72,3.03.6-1.07,1.09-1.97,1.61-2.87.15-.26.28-.7.69-.46.27.16.11.51,0,.76-.04.08-.07.18-.13.25-2.09,2.31-1.42,4.5.23,6.71.58.78.95,1.7,1.42,2.56-2.53,0-5.05.01-7.58.02Z"/>
    </g>
  </g>
</svg>