<?xml version="1.0" encoding="UTF-8"?>
<svg id="Capa_2" data-name="Capa 2" xmlns="http://www.w3.org/2000/svg" viewBox="0 0 290.47 128.14">
  <defs>
    <style>
      .cls-1 {
        fill: #901e20;
      }

      .cls-1, .cls-2, .cls-3, .cls-4, .cls-5 {
        stroke-width: 0px;
      }

      .cls-2 {
        fill: #881a1f;
      }

      .cls-3 {
        fill: #1c120e;
      }

      .cls-4 {
        fill: #fbf7f7;
      }

      .cls-5 {
        fill: #110f0c;
      }
    </style>
  </defs>
  <g id="Capa_1-2" data-name="Capa 1">
    <g>
      <path class="cls-2" d="M234.64,82.56c-4.69-4.9-9.09-9.5-13.48-14.1-19.4-20.32-38.8-40.64-58.2-60.96-1.55-1.63-3.16-3.2-4.63-4.9-.79-.91-1.3-.95-2.26-.19-6.98,5.52-14.01,10.97-21,16.47-.67.53-1.33.75-2.17.75-43.82-.01-87.64-.01-131.45-.01-.28,0-.56,0-.84,0-.64-.01-.57-.48-.58-.9-.01-.41.06-.75.58-.75.47,0,.94,0,1.41,0,43.16,0,86.32,0,129.48.02,1.2,0,2.12-.32,3.06-1.05,7.03-5.45,14.11-10.85,21.16-16.27C156.29.2,156.88,0,157.63,0,177.12.02,196.62.02,216.11,0c.81,0,1.38.2,1.94.83,10.52,11.89,21.06,23.75,31.59,35.62,8.42,9.49,16.84,18.98,25.26,28.47,5,5.64,10,11.28,15,16.92.15.16.27.35.57.75-1.32,0-2.42,0-3.52,0-4.17,0-8.34.07-12.51-.04-1.42-.04-1.67.43-1.66,1.73.05,14.04.01,28.09.06,42.13,0,1.31-.26,1.72-1.66,1.72-20.48-.05-40.96-.05-61.44,0-1.41,0-1.66-.42-1.66-1.72.05-13.44.03-26.87.03-40.31,0-2.09.25-1.88-1.87-1.88-68.19,0-136.37,0-204.56-.03-.59,0-1.63.56-1.67-.79-.02-.57.15-.89.78-.85.47.03.94,0,1.41,0,76.81,0,153.62,0,230.43,0h2.02Z"/>
      <path class="cls-3" d="M18.48,31.48c0-2.09.03-4.19-.01-6.28-.02-.83.18-1.04,1.03-.79,1.79.51,3.61.94,5.43,1.32.72.15.98.43.97,1.19-.03,9.54-.02,19.09,0,28.63,0,.7-.17,1-.94.98-1.83-.05-3.65-.05-5.48,0-.83.02-1.03-.3-1.02-1.06.03-2.76,0-5.52.02-8.28,0-.61-.03-1.19-.38-1.75-2.52-3.99-5.03-8-7.54-11.99-.06-.1-.18-.17-.42-.39,0,.61,0,1.05,0,1.5,0,6.92-.01,13.85.02,20.77,0,.87-.18,1.25-1.15,1.21-1.78-.08-3.56-.05-5.34,0-.79.02-1.16-.12-1.16-1.06.03-10.1.03-20.21,0-30.31,0-.82.28-1.02,1.05-1.01,3,.04,5.99.04,8.99,0,.77-.01,1.17.29,1.55.92,1.32,2.19,2.7,4.35,4.06,6.52.1-.04.21-.08.31-.11Z"/>
      <path class="cls-3" d="M124.2,24.17c1.97,0,3.94.06,5.9-.02,1.17-.05,1.33.34,1.06,1.37-.32,1.22-.53,2.47-.67,3.72-.1.91-.5,1.23-1.36,1.11-.28-.04-.57.03-.84-.01-1.36-.23-1.47.35-1.3,1.56.64,4.54,1.15,9.09,1.73,13.64.06.43-.18,1.13.69,1.12.78,0,.7-.62.79-1.1,1.23-6.71,2.47-13.42,3.66-20.14.17-.94.48-1.34,1.52-1.28,1.92.1,3.85.1,5.76,0,1.17-.06,1.32.37,1.12,1.37-1.25,6.08-2.46,12.18-3.69,18.26-.8,3.93-1.64,7.85-2.38,11.79-.15.78-.42.98-1.16.98-3.75-.03-7.5-.03-11.25,0-.79,0-1.03-.32-1.16-1.04-1.83-9.96-3.68-19.91-5.56-29.85-.22-1.18.01-1.56,1.26-1.5,1.96.1,3.94.03,5.9.03Z"/>
      <path class="cls-3" d="M170.33,56.53c-3.56,0-6.79,0-10.01,0-.53,0-.86-.27-1.2-.62-2.22-2.28-4.42-4.58-6.68-6.82-.65-.64-.68-1.04-.04-1.7,1.94-2.03,3.79-4.14,5.73-6.17.62-.65.64-1.04-.02-1.69-1.93-1.91-3.75-3.93-5.68-5.83-.7-.68-.57-1.08.03-1.69,2.29-2.35,4.53-4.73,6.79-7.1.32-.33.58-.75,1.13-.75,3.26,0,6.52,0,10.12,0-2.59,2.62-4.88,5.06-7.32,7.35-1.02.96-.93,1.49.03,2.39,1.95,1.82,3.74,3.8,5.65,5.67.6.59.61.97-.02,1.55-1.88,1.76-3.7,3.58-5.54,5.38-1.31,1.29-1.31,1.3.02,2.66,2.05,2.12,4.11,4.23,6.15,6.35.22.23.42.47.86.97Z"/>
      <path class="cls-3" d="M69.56,43.16c0-4.03-.03-8.05.02-12.08.01-.98-.29-1.3-1.27-1.27-1.16.04-2.67.51-3.4-.18-.8-.77-.26-2.3-.27-3.5-.02-2.29-.3-1.95,1.88-1.95,4.64-.02,9.28.02,13.92-.03,1.04-.01,1.54.17,1.43,1.35-.11,1.16-.05,2.34-.01,3.51.02.69-.17,1.01-.93,1.01-1.06,0-2.48-.49-3.1.22-.71.81-.22,2.24-.22,3.39-.02,7.16-.03,14.32.01,21.49,0,1.06-.21,1.5-1.38,1.43-1.73-.1-3.47-.09-5.2,0-1.14.06-1.54-.24-1.51-1.45.08-3.98.03-7.96.03-11.94Z"/>
      <path class="cls-1" d="M49.26,35.7c1.36,1.85,2.34,3.93,3.48,5.91,2.61,4.54,5.17,9.11,7.75,13.66.18.32.33.66.62,1.25-1.93,0-3.7-.22-5.4.05-3.37.52-5.54-.68-6.92-3.78-.68-1.52-1.81-2.83-2.68-4.28-.55-.93-.89-.8-1.41.04-1.43,2.3-2.96,4.55-4.37,6.86-.5.81-1.03,1.16-2.01,1.14-2.79-.07-5.59-.02-8.66-.02.94-1.67,1.76-3.13,2.58-4.58,2.92-5.17,5.85-10.34,8.78-15.5.16-.28.39-.51.58-.77.58,1.32,1.16,2.64,1.82,4.15.73-1.44,1.33-2.63,2.01-3.96.62,1.34,1.17,2.53,1.83,3.96.75-1.55,1.38-2.84,2-4.13ZM31.55,55.17c2.6,0,4.93,0,7.25,0,.53,0,.66-.22.52-.69-.36-1.2-.73-2.39-1.14-3.77-.91,1.46-1.72,2.77-2.63,4.24-.47-1.52-.86-2.78-1.32-4.26-.93,1.55-1.72,2.87-2.68,4.47ZM56.85,50.68c-.52,1.54-.95,2.82-1.44,4.3-.89-1.52-1.63-2.8-2.51-4.3-.45,1.44-.82,2.68-1.23,3.91-.15.46.04.58.45.58,2.35,0,4.71,0,7.27,0-.88-1.55-1.63-2.87-2.55-4.48Z"/>
      <path class="cls-3" d="M94.53,40.33c0-4.92.03-9.83-.02-14.75-.01-1.05.19-1.49,1.36-1.43,2.29.1,4.59.06,6.89.01.81-.02,1.02.26,1.02,1.04-.02,10.11-.02,20.22,0,30.34,0,.82-.29,1.02-1.05,1.01-2.34-.04-4.69-.06-7.03,0-.94.03-1.19-.29-1.18-1.2.04-5.01.02-10.02.02-15.03Z"/>
      <path class="cls-5" d="M141.71,76.42h-6.89c2.72-.56,2.11-2.7,2.13-4.46.04-2.92.47-5.83.21-9.13-1.97,3.9-3.88,7.45-5.51,11.15-.33.76-.43,2.07-1.11,2.1-.77.04-.82-1.27-1.18-1.98-1.6-3.17-3.15-6.36-4.73-9.54-.22-.44-.49-.85-.73-1.27-.14.02-.27.05-.41.07,0,1.28,0,2.55,0,3.83,0,1.73-.02,3.46-.04,5.19-.04,2.71.03,2.83,2.49,4.05h-5.78s0-.17.02-.18c2.26-.49,2.42-1.43,2.46-3.55.04-2.48.15-4.95.22-7.43.02-.56,0-1.12-.01-1.68-.05-1.64-.99-2.51-2.62-2.89,1.64-.34,3.19-.27,4.73-.14.59.05.66.59.86,1,1.46,2.98,2.91,5.96,4.37,8.94.29.58.62,1.14,1.03,1.87,1.5-2.38,2.61-4.79,3.75-7.19.56-1.18,1.15-2.35,1.59-3.58.31-.88.82-1.13,1.67-1.06,1.28.1,2.59-.12,3.98.16-.19.2-.27.37-.37.38-1.78.06-2.27,1.21-2.29,2.73-.04,3.08-.31,6.16-.14,9.25q.13,2.3,2.3,3.37Z"/>
      <path class="cls-5" d="M97.66,76.52h-6.71c2.31-.43,2.14-2.18,2.12-3.8-.01-1.21.52-2.76-.2-3.53-.8-.86-2.4-.3-3.65-.31-4.13-.03-4.13,0-4.13,4.07q0,2.06,2.02,3.63c-2.33-.12-4.41-.16-6.61-.1,2.37-.59,2.13-2.43,2.21-4.11.14-2.9.33-5.79.12-8.69-.09-1.23-.27-2.35-1.77-2.81h5.95s0,.17-.02.18c-1.64.18-1.95,1.22-1.81,2.66.09.97.08,1.97-.02,2.94-.12,1.15.31,1.61,1.45,1.58,1.87-.06,3.74-.07,5.62-.09.63,0,.91-.26.9-.93-.02-.89.09-1.77.09-2.66-.02-2.56-.13-2.71-2.7-3.71h7.42c-.04.5-.39.4-.63.42-1.07.08-1.58.68-1.67,1.72-.29,3.69-.29,7.38-.3,11.08,0,1.64,1.33,1.81,2.34,2.48Z"/>
      <path class="cls-5" d="M40.89,60.48c3.68.33,7.41-.51,11.04.61,3.75,1.16,5.71,4.32,5.44,8.6-.21,3.29-2.79,6.18-6.24,6.82-3.7.69-7.4-.49-11.2.2.1-.37.12-.52.15-.52,2.2-.13,2.56-1.66,2.6-3.42.07-2.95.18-5.89.16-8.84-.01-2.04-.1-2.04-1.95-3.45ZM44.93,69.7s.03,0,.04,0c0,1.31,0,2.62,0,3.93,0,1.4.76,2.18,2.07,2.41,1.62.28,3.18.07,4.56-.87,2.68-1.82,3.78-6.28,2.41-9.63-1.57-3.84-4.29-4.54-7.92-4.29-.73.05-.78.49-.8,1.05-.11,2.47-.24,4.95-.37,7.42Z"/>
      <path class="cls-5" d="M111.96,76.42c-.05-.35-.1-.71-.16-1.19-1.96,1.31-4.02,1.79-6.22,1.39-3.56-.65-5.92-3.51-6.26-7.46-.29-3.44,2.2-7.23,5.54-8.44,3.5-1.26,7.08-.05,9.21,3.11.34.5.7.99,1.05,1.48-.12.18-.23.36-.35.53-.05-.11-.1-.21-.15-.32-.43-.05-.86-.14-1.27.08-.15.15-.3.3-.45.45-.27.54-.11,1.11-.14,1.67.13.72-.14,1.43-.21,2.14.68.06,1.24.11,2.16.19-1.12.56-1.54,1.46-2.48,1.61-.3-1.36-.03-2.7.18-4.04.06-.41.02-.84-.03-1.25-.09-.61-.35-.96-1.09-.94-2.61.05-5.23.03-7.84,0-.67,0-.97.19-1.12.9-.48,2.38-.03,4.63.86,6.81.7,1.7,2.02,2.63,3.86,2.77,1.83.14,3.09-.72,4.07-2.2.45-.67.49-1.54,1.13-2.09,0,1.1,0,2.2,0,3.3,0,.49,0,.98,0,1.47-.09,0-.19,0-.28,0ZM110.33,62.54c-1.49-2.11-4.57-2.1-5.99,0h5.99Z"/>
      <path class="cls-5" d="M24.53,68.42c2.17.83,2.87,2.43,3.19,4.33.3,1.81,1.04,3.31,3.29,3.5-1.61.39-3.08.27-4.53.06-.59-.08-.79-.73-.91-1.3-.28-1.37-.5-2.75-.87-4.09-.51-1.83-2.66-2.89-4.48-2.34-.48.15-.53.46-.53.85,0,1.54.04,3.08.02,4.63-.02,1.49,1.11,1.8,2.16,2.31h-6.77c2.85-.46,2.3-2.64,2.32-4.47.03-2.34.02-4.67-.02-7.01-.03-1.72.31-3.67-2.23-4.03.3-.51.67-.4.97-.41,2.67-.02,5.34-.11,8-.02,2.75.09,4.4,1.75,4.32,4.12-.05,1.4-.74,2.38-1.94,3.02-.53.28-1.11.48-1.97.85ZM19.68,64.51s0,0,0,0c0,.89,0,1.78,0,2.66,0,.37-.04.81.53.79,1.78-.08,3.59-.05,4.9-1.59.96-1.13,1.04-2.77.21-4.04-.84-1.29-2.82-1.88-4.85-1.29-1.5.43-.47,1.76-.78,2.63-.09.25-.01.56-.01.84Z"/>
      <path class="cls-5" d="M73.37,72.48c.08,1.42-.36,2.64-.66,3.87-.08.31-.38.37-.68.38-4.38.03-8.75-.11-13.15-.33.05-.18.06-.32.1-.34,2.07-.59,2.3-.86,2.32-3.08.03-2.67.04-5.33,0-8-.03-1.73.35-3.72-2.25-4.05.34-.61.76-.49,1.1-.45,3.5.39,7.02.19,10.53.16,1.12,0,1.51.44,1.57,1.38.05.82.5,1.61.25,2.45-.25.08-.38-.06-.47-.22-1.66-3.02-4.42-3.26-7.41-2.95-.74.08-1.05.43-1.04,1.18.01,1.5-.01,2.99-.06,4.49-.02.65.22.88.89.92,1.85.11,2.4-.22,4.07-2.78v6.22c-.11.09-.23.18-.34.27-.29-2.27-1.69-2.99-3.61-3.07-.69-.03-1.04.13-1.01.9.05,1.5.02,2.99.06,4.49.03,1.07.61,1.7,1.67,1.95,3.25.74,5.86-.32,7.67-3.13.06-.1.21-.14.44-.28Z"/>
      <path class="cls-5" d="M156.58,64.48c-.3.08-.4-.12-.48-.26-1.61-2.89-4.26-3.19-7.17-2.93-.86.08-1.27.44-1.26,1.31,0,1.5-.01,3-.05,4.49-.02.62.26.77.83.82,1.93.16,2.83-.33,3.66-2.11.08-.16.16-.32.44-.46v6.05c-.47.08-.38-.3-.47-.53-.63-1.75-1.97-2.51-3.84-2.31-.64.07-.62.41-.62.85.01,1.45,0,2.9.04,4.35.04,1.31.73,2,2.07,2.21,3.26.51,5.2-.33,7.83-3.74-.02,1.68-.42,2.97-.8,4.25-.04.13-.39.24-.6.24-4.39.05-8.77-.1-13.17-.31.04-.16.04-.31.08-.32,2.14-.65,2.31-.83,2.34-3.21.03-2.67.01-5.34-.02-8-.02-1.7.43-3.67-2.2-3.88.29-.6.65-.53.96-.5,3.6.39,7.21.17,10.81.18.9,0,1.3.31,1.36,1.13.07.9.52,1.78.27,2.7Z"/>
      <path class="cls-5" d="M.49,60.64c3.5-.02,6.94-.68,10.33.23,1.7.46,2.66,1.82,2.72,3.51.07,1.89-.71,3.13-2.44,3.85-1.55.64-3.2.8-4.83.64-1.28-.12-1.68.27-1.58,1.47.06.74-.02,1.49,0,2.23.02,1.57-.24,3.31,2.02,3.79H.61c2.45-.96,1.73-3.11,1.82-4.83.14-2.61.06-5.24.04-7.85-.01-1.35-.13-2.69-1.98-3.05ZM4.77,64.94c.18.94-.58,2.47.27,3.12.84.65,2.32.33,3.51-.04,1.72-.54,2.59-1.96,2.47-4.04-.09-1.58-.96-2.49-2.75-2.81-.59-.11-1.2-.14-1.81-.14-1.15,0-1.98.3-1.7,1.76.12.63.02,1.3.02,2.15Z"/>
      <path class="cls-2" d="M206.7,95.72c-.02,5.42-4.41,9.82-9.83,9.86-5.5.04-9.95-4.47-9.9-10.05.04-5.43,4.44-9.78,9.88-9.77,5.48.01,9.87,4.45,9.85,9.95ZM196.81,86.98c-4.89,0-8.74,3.87-8.72,8.74.02,4.74,3.91,8.64,8.68,8.73,4.71.08,8.79-3.99,8.79-8.76,0-4.86-3.87-8.71-8.76-8.71Z"/>
      <path class="cls-5" d="M168.47,60.29c.61,1.42.4,2.68.73,3.85.07.24.17.6-.22.69-.27.06-.4-.2-.49-.41-.5-1.15-1.27-2.07-2.32-2.75-1.6-1.04-3.49-.85-4.45.39-1.05,1.36-.75,2.96.74,3.8,1.15.65,2.43.95,3.66,1.39,3.32,1.19,4.75,3.36,3.9,5.93-.88,2.66-3.98,4.16-7.01,3.37-.45-.12-.93-.22-1.32-.46-.86-.55-1.53-.62-1.99.92-.76-2.01-.45-3.74-.68-5.39-.01-.08.21-.28.25-.26.16.06.34.17.42.31.42.73.74,1.52,1.22,2.2,1.01,1.46,2.34,2.41,4.23,2.28,1.44-.1,2.66-1.03,3-2.33.37-1.39-.15-2.69-1.41-3.51-.99-.64-2.13-.93-3.23-1.31-.53-.18-1.06-.37-1.57-.61-2.11-.96-3.11-2.6-2.78-4.51.29-1.67,2.19-3.25,4.17-3.44,1.13-.11,2.27-.07,3.29.48.79.42,1.36.37,1.85-.62Z"/>
      <path class="cls-5" d="M38.44,60.58c-2.26.52-2.16,2.26-2.17,3.92,0,2.71-.02,5.43.04,8.14.05,2.45.1,2.47,2.32,3.78h-6.31c1.93-.52,1.67-2.05,1.68-3.4.01-2.9.03-5.8-.03-8.7-.03-1.46.06-3.07-1.84-3.74h6.32Z"/>
      <path class="cls-1" d="M41.63,35.48c.88-1.64,1.71-3.32,2.67-4.91.52-.87.58-1.59.03-2.44-.48-.74-.87-1.54-1.29-2.32-.13-.24-.25-.56.13-.69.29-.11.4.17.51.36.53.93,1.05,1.86,1.72,3.03.6-1.07,1.09-1.97,1.61-2.87.15-.26.28-.7.69-.46.27.16.11.51,0,.76-.04.08-.07.18-.13.25-2.09,2.31-1.42,4.5.23,6.71.58.78.95,1.7,1.42,2.56-2.53,0-5.05.01-7.58.02Z"/>
      <path class="cls-4" d="M41.63,35.48c2.53,0,5.05-.01,7.58-.02-.07.1-.05.18.05.24-.62,1.29-1.25,2.57-2,4.13-.66-1.43-1.21-2.62-1.83-3.96-.67,1.33-1.28,2.52-2.01,3.96-.66-1.51-1.24-2.83-1.82-4.15,0,0,.08-.09.08-.09l-.06-.11Z"/>
      <path class="cls-3" d="M115.88,66.26c2.97,3.61,3.88,7.65,2.5,12.15-.12.39-.18.96-.6,1.04-.48.09-.57-.51-.8-.83-.38-.52-.73-1.07-1.15-1.7-.27.42-.46.73-.66,1.03-.05-.05-.1-.09-.16-.13.08-.98.88-1.79.65-2.83.35-.52.42-1.11.47-1.71.19-2.1-.26-4.12-.8-6.12.19-.3.37-.59.56-.89ZM116.47,74.39c-.6,1.44-.28,2.69.75,3.81.4.44.69.46.87-.14.47-1.55.92-3.11.28-4.74-.07-2.16-.84-4.03-2.3-5.63.48,2.23.75,4.44.39,6.69Z"/>
      <path class="cls-3" d="M111.96,76.42c.09,0,.19,0,.28,0,.23.79.47,1.58.69,2.37.13.49.31.88.93.72.04.05.09.1.13.15-.26.37-.47.94-.97.83-.45-.1-.31-.71-.41-1.09-.26-.97-.44-1.97-.66-2.96Z"/>
      <path class="cls-5" d="M115.88,66.26c-.19.3-.37.59-.56.89-.18-.44-.36-.87-.54-1.31.12-.18.23-.36.35-.53.25.32.5.63.75.95Z"/>
      <path class="cls-3" d="M114.81,78.46c-.12.5-.44.85-.8,1.18-.04-.05-.09-.1-.13-.15.1-.51.41-.87.85-1.12l.09.08Z"/>
      <path class="cls-3" d="M115.16,77.95c-.12.17-.24.34-.35.51,0,0-.09-.08-.09-.08,0-.24.05-.45.28-.56.05.04.1.09.16.13Z"/>
      <path class="cls-4" d="M31.55,55.17c.96-1.6,1.75-2.92,2.68-4.47.46,1.48.85,2.73,1.32,4.26.91-1.47,1.72-2.78,2.63-4.24.42,1.37.78,2.57,1.14,3.77.14.47,0,.69-.52.69-2.32-.01-4.65,0-7.25,0Z"/>
      <path class="cls-4" d="M56.85,50.68c.91,1.61,1.67,2.93,2.55,4.48-2.57,0-4.92,0-7.27,0-.41,0-.6-.13-.45-.58.4-1.23.77-2.46,1.23-3.91.88,1.5,1.62,2.78,2.51,4.3.5-1.48.93-2.76,1.44-4.3Z"/>
      <path class="cls-4" d="M114.78,65.85c.18.44.36.87.54,1.31.54,2.01,1,4.02.8,6.12-.06.6-.13,1.19-.47,1.71-1.14.36-2.27.24-3.4-.04,0-1.1,0-2.2,0-3.3,0,0-.02.02-.02.02.95-.16,1.36-1.05,2.48-1.61-.92-.08-1.48-.13-2.16-.19.07-.72.34-1.42.21-2.14.17-.55.27-1.1.14-1.67.15-.15.3-.3.45-.45.43.05.87.2,1.27-.08.05.11.1.21.15.32Z"/>
      <path class="cls-1" d="M112.25,74.94c1.13.29,2.26.4,3.4.04.23,1.05-.57,1.86-.65,2.83-.24.12-.28.33-.28.56-.44.25-.75.6-.85,1.12-.62.17-.8-.23-.93-.72-.22-.79-.46-1.58-.69-2.37,0-.49,0-.98,0-1.47Z"/>
      <path class="cls-3" d="M112.91,66.06c.13.57.03,1.12-.14,1.67.03-.56-.13-1.13.14-1.67Z"/>
      <path class="cls-3" d="M114.63,65.53c-.41.29-.84.14-1.27.08.41-.23.84-.13,1.27-.08Z"/>
      <path class="cls-2" d="M118.37,73.33c.64,1.62.19,3.18-.28,4.74-.18.6-.47.58-.87.14-1.03-1.12-1.35-2.37-.75-3.81.77-.11,1.22-.79,1.91-1.06Z"/>
      <path class="cls-4" d="M118.37,73.33c-.68.27-1.13.96-1.91,1.06.36-2.25.08-4.46-.39-6.69,1.46,1.59,2.23,3.46,2.3,5.63Z"/>
      <path class="cls-1" d="M202.62,93.31c-1.8-.11-2.93.89-2.93,2.52,0,1.61,1.12,2.57,2.85,2.5.33-.01.93-.53.97.23.02.51-.61.51-.99.54-1.33.13-2.55-.18-3.27-1.4-.71-1.21-.67-2.5.05-3.72.73-1.23,1.93-1.54,3.25-1.46.38.02,1.01.01.97.55-.06.77-.67.07-.9.24Z"/>
      <path class="cls-2" d="M195.12,95.81c0-.7-.03-1.4.01-2.1.02-.36-.23-1,.44-.96.6.04.38.65.39,1.02.03,1.07.08,2.15,0,3.22-.09,1.08.33,1.45,1.35,1.3.27-.04.56,0,.84,0,.24,0,.5.06.48.36-.01.27-.25.38-.49.39-.79.01-1.59.01-2.38,0-.6,0-.63-.42-.63-.87,0-.79,0-1.59,0-2.38Z"/>
      <path class="cls-2" d="M194.34,98.73c-1.13.44-2.16.2-3.16.22-.43,0-.52-.31-.52-.67,0-1.64,0-3.27,0-4.91,0-.27,0-.6.37-.63.49-.05.49.33.49.66,0,1.22.06,2.43,0,3.64-.06.97.25,1.37,1.25,1.27.46-.04,1.02-.22,1.57.42Z"/>
    </g>
  </g>
</svg>